:SAMPLES-PER-SECOND 30
:FULLY-SPECIFIED
:DEGREES
467
root  -64.8673 34.8954 29.2842 -169.871 49.8689 176.253
RightUpLeg  -9.17889 -15.6281 1.1454
RightLeg  8.92651 -2.73378 -0.249446
RightFoot  -2.36984 -0.014833 0.268408
RightToes  -14.5635 -0.0536843 -0.137242
Spine  -0.668413 -0.276979 -0.822577
Spine1  -1.42881 -0.491722 -1.03801
HEad  -68.464 0.195841 7.51188
LeftShoulder1  -1.94126e-019 -3.10601e-018 -2.51263e-017
LeftArm  -5.25836 21.0573 -80.7963
LeftForeArm  35.0065 -14.6646 -2.50727
LeftHand  -0.392119 -1.12788 7.12759
RightShoulder  -4.96962e-017 0 -2.36833e-017
RightArm  -22.5485 -23.049 78.5853
RightForeArm  52.1824 18.96 1.51459
RightHand  -0.420045 -0.99478 -11.0409
LeftUpLeg  -2.08079 -43.8452 -3.95598
LeftLeg  7.34181 45.9074 2.62963
LeftFoot  3.507 -0.111274 3.79525
LeftToes  -15.682 1.34695e-006 1.12385e-007
468
root  -64.7233 34.7835 29.2541 -170.051 49.8792 175.945
RightUpLeg  -8.9584 -16.5001 0.97618
RightLeg  8.96447 -1.57221 -0.144122
RightFoot  -3.50459 -0.0138732 0.245383
RightToes  -14.9104 -0.053364 -0.140552
Spine  -0.643767 -0.126719 -0.760094
Spine1  -1.38037 -0.212046 -0.912548
HEad  -69.4691 -0.204565 6.92561
LeftShoulder1  -1.94126e-019 -3.10601e-018 -2.51263e-017
LeftArm  -5.59198 20.8384 -80.8061
LeftForeArm  34.4952 -14.4374 -2.44767
LeftHand  -0.38724 -1.12493 7.04341
RightShoulder  -4.96962e-017 0 -2.36833e-017
RightArm  -23.3062 -23.2673 78.6571
RightForeArm  52.9878 17.6788 1.2524
RightHand  -0.41497 -1.08417 -11.1237
LeftUpLeg  -2.05118 -44.8341 -4.24074
LeftLeg  8.61812 46.2311 3.56801
LeftFoot  2.54522 -0.0593727 2.83389
LeftToes  -15.5125 1.34695e-006 1.12385e-007
469
root  -64.5849 34.6836 29.252 -170.247 50.0919 175.844
RightUpLeg  -9.16731 -16.7508 0.948241
RightLeg  10.044 -1.08163 -0.119505
RightFoot  -4.56926 -0.0129776 0.229093
RightToes  -15.764 -0.053409 -0.141922
Spine  -0.556321 -0.0918978 -0.818809
Spine1  -1.21885 -0.147261 -1.06398
HEad  -70.7218 0.201709 7.04971
LeftShoulder1  -1.94126e-019 -3.10601e-018 -2.51263e-017
LeftArm  -6.60653 20.7065 -80.4658
LeftForeArm  33.9126 -15.1248 -2.5706
LeftHand  -0.395791 -0.978058 7.3499
RightShoulder  -4.96962e-017 0 -2.36833e-017
RightArm  -23.6719 -23.1969 79.1677
RightForeArm  52.544 16.4313 1.12667
RightHand  -0.372206 -1.57001 -11.1795
LeftUpLeg  -3.68305 -40.1421 -3.67193
LeftLeg  12.6667 40.6341 5.87752
LeftFoot  0.895629 -0.00605904 0.936901
LeftToes  -16.5484 1.34695e-006 1.12385e-007
470
root  -64.4454 34.605 29.3334 -170.254 49.4344 176.048
RightUpLeg  -9.13741 -17.1701 1.28067
RightLeg  10.7626 -1.20871 -0.14911
RightFoot  -5.53799 -0.0141008 0.261927
RightToes  -15.8794 -0.0539063 -0.137932
Spine  -0.477927 -0.224642 -0.805992
Spine1  -1.05431 -0.419918 -1.0336
HEad  -71.904 0.154206 6.95903
LeftShoulder1  -1.94126e-019 -3.10601e-018 -2.51263e-017
LeftArm  -7.75196 20.5643 -80.1441
LeftForeArm  33.2498 -16.7309 -2.85552
LeftHand  -0.390152 -0.815877 7.42241
RightShoulder  -4.96962e-017 0 -2.36833e-017
RightArm  -26.7349 -22.8826 79.981
RightForeArm  52.2586 14.8499 1.2193
RightHand  -0.318503 -2.14652 -11.1623
LeftUpLeg  -8.20749 -26.656 -1.89813
LeftLeg  19.8695 25.771 7.1908
LeftFoot  -2.51249 -0.0280844 -1.11905
LeftToes  -8.61941 1.34695e-006 1.12385e-007
471
root  -64.2339 34.4661 29.5248 -167.224 48.896 179.236
RightUpLeg  -9.62588 -16.345 4.05841
RightLeg  10.7616 -2.27778 -0.281661
RightFoot  -6.04174 -0.00889499 0.390455
RightToes  -14.911 -0.0549427 -0.134699
Spine  -0.755432 -0.220576 -0.186887
Spine1  -1.59034 -0.402031 0.211267
HEad  -72.3155 0.466809 6.73832
LeftShoulder1  -1.94126e-019 -3.10601e-018 -2.51263e-017
LeftArm  -9.21524 21.5097 -80.224
LeftForeArm  32.4205 -20.4705 -3.52836
LeftHand  -0.395508 -0.838646 7.49733
RightShoulder  -4.96962e-017 0 -2.36833e-017
RightArm  -27.6298 -23.2717 80.0783
RightForeArm  49.9832 14.1911 1.3338
RightHand  -0.219814 -2.98514 -10.1088
LeftUpLeg  -13.2602 -18.4466 2.01162
LeftLeg  27.3645 15.004 6.47422
LeftFoot  -6.09974 -0.0965296 -1.65001
LeftToes  -8.60341 1.34695e-006 1.12385e-007
472
root  -63.9727 34.2681 29.3544 -165.552 49.869 -178.988
RightUpLeg  -9.28607 -16.7313 5.07453
RightLeg  10.5218 -0.0940988 -0.0103349
RightFoot  -7.221 -0.0239683 0.165829
RightToes  -15.5285 -0.0579594 -0.139934
Spine  -0.890519 0.414361 0.233984
Spine1  -1.83353 0.844214 1.06672
HEad  -72.8904 0.0429236 5.59211
LeftShoulder1  -1.94126e-019 -3.10601e-018 -2.51263e-017
LeftArm  -9.85338 22.0019 -81.065
LeftForeArm  31.3314 -22.7784 -3.91723
LeftHand  -0.372566 -0.588729 7.34193
RightShoulder  -4.96962e-017 0 -2.36833e-017
RightArm  -25.4367 -24.0013 79.1666
RightForeArm  47.7907 14.4659 1.35446
RightHand  -0.179386 -3.19048 -8.83874
LeftUpLeg  -14.1657 -40.109 7.42368
LeftLeg  39.0072 13.1393 9.14573
LeftFoot  -17.7246 -0.784124 -4.86424
LeftToes  46.0205 1.34695e-006 1.12385e-007
473
root  -63.605 34.106 29.5442 -164.303 48.8599 -175.975
RightUpLeg  -7.26681 -13.4539 7.40474
RightLeg  9.59409 -4.37493 -0.450913
RightFoot  -8.25529 0.0168426 0.802838
RightToes  -10.3947 -0.0346222 -0.0954762
Spine  -0.484436 0.682404 0.834759
Spine1  -1.00934 1.40704 2.26245
HEad  -73.5835 -0.858697 5.34809
LeftShoulder1  -1.94126e-019 -3.10601e-018 -2.51263e-017
LeftArm  -9.79271 21.3496 -81.3939
LeftForeArm  31.24 -25.0881 -4.29086
LeftHand  -0.400525 -1.05718 7.35167
RightShoulder  -4.96962e-017 0 -2.36833e-017
RightArm  -22.9749 -23.3811 78.7918
RightForeArm  47.9683 14.8406 1.32022
RightHand  -0.216202 -2.1762 -7.51693
LeftUpLeg  -19.4518 -16.2814 8.25493
LeftLeg  42.949 2.44867 1.99323
LeftFoot  -8.99179 -0.0418074 -0.370182
LeftToes  -37.2769 1.34695e-006 1.12385e-007
474
root  -63.2413 34.0995 29.4929 -164.755 49.3297 -176.411
RightUpLeg  -6.59635 -12.0173 7.28005
RightLeg  9.59239 -5.53253 -0.569863
RightFoot  -8.8258 0.0348065 1.02658
RightToes  -9.08993 -0.0293331 -0.0838579
Spine  -0.477768 0.998537 0.703235
Spine1  -0.999407 2.09306 2.00481
HEad  -73.6379 -1.09848 5.00277
LeftShoulder1  -1.94126e-019 -3.10601e-018 -2.51263e-017
LeftArm  -10.3896 21.3582 -81.6821
LeftForeArm  30.9136 -24.5981 -4.06221
LeftHand  -0.414065 -0.986676 7.67423
RightShoulder  -4.96962e-017 0 -2.36833e-017
RightArm  -20.9492 -22.1317 78.757
RightForeArm  49.0371 14.4136 1.33124
RightHand  -0.228154 -1.96703 -7.49494
LeftUpLeg  -26.4694 7.20193 2.10238
LeftLeg  47.9675 15.5593 14.6537
LeftFoot  -0.411774 -0.000598292 -0.00498754
LeftToes  -26.6149 1.34695e-006 1.12385e-007
475
root  -62.8919 34.0632 29.2496 -165.078 50.0282 -176.475
RightUpLeg  -5.65046 -12.2826 6.98119
RightLeg  9.61757 -4.96258 -0.51347
RightFoot  -9.32829 0.0334923 0.982574
RightToes  -8.80689 -0.0272355 -0.0813219
Spine  -0.519977 1.34417 0.61778
Spine1  -1.08637 2.81896 1.82059
HEad  -72.8163 -1.33647 4.74735
LeftShoulder1  -1.94126e-019 -3.10601e-018 -2.51263e-017
LeftArm  -11.3798 22.1253 -82.245
LeftForeArm  30.7958 -24.6429 -4.01002
LeftHand  -0.423884 -0.899968 7.95446
RightShoulder  -4.96962e-017 0 -2.36833e-017
RightArm  -20.9693 -20.4899 78.6441
RightForeArm  50.3157 13.7308 1.37557
RightHand  -0.220172 -2.27339 -7.88892
LeftUpLeg  -29.0019 6.33923 1.90906
LeftLeg  53.0255 15.7017 17.4815
LeftFoot  -3.52006 -0.0466064 -1.35507
LeftToes  -18.56 1.34695e-006 1.12385e-007
476
root  -62.5171 34.0788 28.9034 -166.371 51.011 -177.885
RightUpLeg  -4.34121 -11.3628 5.67868
RightLeg  9.07179 -5.14087 -0.482467
RightFoot  -9.55659 0.03894 1.03898
RightToes  -9.17732 -0.025794 -0.08439
Spine  -0.615649 1.61635 0.232259
Spine1  -1.29453 3.39767 1.0478
HEad  -71.9063 -1.06037 4.50046
LeftShoulder1  -1.94126e-019 -3.10601e-018 -2.51263e-017
LeftArm  -10.7995 23.2746 -82.2779
LeftForeArm  28.6482 -23.9764 -3.89797
LeftHand  -0.426402 -0.648659 8.3125
RightShoulder  -4.96962e-017 0 -2.36833e-017
RightArm  -21.0969 -18.7499 78.9647
RightForeArm  50.6163 13.596 1.38531
RightHand  -0.193787 -2.82524 -8.29003
LeftUpLeg  -31.0133 5.47309 0.700025
LeftLeg  55.4886 15.1753 18.394
LeftFoot  -4.67273 -0.0829964 -1.87244
LeftToes  -14.4629 1.34695e-006 1.12385e-007
477
root  -62.1085 34.0832 28.5261 -167.608 52.125 -179.319
RightUpLeg  -3.23421 -10.8477 4.3542
RightLeg  8.85089 -4.90795 -0.441567
RightFoot  -9.88371 0.0399765 1.03418
RightToes  -9.58858 -0.0249985 -0.0883122
Spine  -0.647959 1.93255 -0.195983
Spine1  -1.37671 4.05469 0.203025
HEad  -71.2981 -1.07133 4.35378
LeftShoulder1  -1.94126e-019 -3.10601e-018 -2.51263e-017
LeftArm  -10.422 24.2247 -82.2306
LeftForeArm  27.6828 -22.8735 -3.69513
LeftHand  -0.399327 -0.820669 7.58913
RightShoulder  -4.96962e-017 0 -2.36833e-017
RightArm  -18.7119 -16.963 79.2853
RightForeArm  48.4886 14.6345 1.32458
RightHand  -0.147978 -3.53722 -8.4165
LeftUpLeg  -33.4223 6.39335 -1.13852
LeftLeg  56.2779 15.3375 19.0707
LeftFoot  -2.83991 -0.0310079 -1.0893
LeftToes  -18.3191 1.34695e-006 1.12385e-007
478
root  -61.6244 34.0279 28.1358 -168.327 52.7817 179.777
RightUpLeg  -1.87061 -10.3443 3.53342
RightLeg  8.12771 -5.01184 -0.387255
RightFoot  -10.2855 0.0469441 1.094
RightToes  -9.77062 -0.0248385 -0.0901216
Spine  -0.645973 2.11519 -0.554993
Spine1  -1.38184 4.42194 -0.489933
HEad  -71.3356 -1.00225 4.31941
LeftShoulder1  -1.94126e-019 -3.10601e-018 -2.51263e-017
LeftArm  -9.6177 25.1267 -81.8728
LeftForeArm  28.1801 -21.9334 -3.50211
LeftHand  -0.380375 -1.31696 6.73801
RightShoulder  -4.96962e-017 0 -2.36833e-017
RightArm  -16.3316 -14.8805 79.6632
RightForeArm  46.7323 15.9515 1.31343
RightHand  -0.158116 -3.36927 -8.33821
LeftUpLeg  -35.3673 6.51099 -2.17558
LeftLeg  55.0052 14.5886 17.4565
LeftFoot  -2.50363 -0.0219806 -0.844298
LeftToes  -20.1726 1.34695e-006 1.12385e-007
479
root  -61.1141 33.9172 27.7062 -168.536 53.5048 179.463
RightUpLeg  -0.529063 -9.55465 3.04361
RightLeg  7.52791 -5.22484 -0.348782
RightFoot  -10.817 0.0582373 1.18865
RightToes  -10.1485 -0.0253037 -0.0912912
Spine  -0.626957 2.20708 -0.725624
Spine1  -1.33485 4.57998 -0.793437
HEad  -71.4997 -0.803954 4.14501
LeftShoulder1  -1.94126e-019 -3.10601e-018 -2.51263e-017
LeftArm  -10.4931 25.9945 -81.8356
LeftForeArm  26.2246 -20.6816 -3.32332
LeftHand  -0.366185 -0.845504 6.94197
RightShoulder  -4.96962e-017 0 -2.36833e-017
RightArm  -14.1533 -12.6775 79.6937
RightForeArm  45.2771 18.3425 1.69668
RightHand  -0.164274 -3.13218 -7.81696
LeftUpLeg  -37.2291 7.00716 -2.75436
LeftLeg  52.8644 13.4357 15.0477
LeftFoot  -2.84077 -0.0249092 -0.843001
LeftToes  -21.6998 1.34695e-006 1.12385e-007
